<svg fill="none" height="450" width="450" xmlns="http://www.w3.org/2000/svg"><clipPath id="a"><path d="M0 0h450v450H0z"/></clipPath><g clip-path="url(#a)"><rect fill="#2b2a33" height="450" rx="33" width="450"/><path d="M177.087 133v-3.5h-26.608l-.878.581-45.533 30.135-1.568 1.038v30.729l5.432-3.594 40.1-26.538v156.167h29.055v-3.5zm49.236 132.639h-3.685l.19 3.68c.506 9.839 3.463 18.691 8.897 26.465 5.397 7.719 12.561 13.768 21.415 18.149 8.897 4.402 18.835 6.567 29.743 6.567 12.105 0 23.033-2.728 32.688-8.263l.008-.004.007-.005c9.602-5.566 17.161-13.16 22.628-22.742 5.55-9.682 8.286-20.632 8.286-32.756 0-12.271-2.634-23.32-7.989-33.056-5.27-9.689-12.578-17.356-21.891-22.941-9.311-5.678-19.88-8.482-31.603-8.482-6.486 0-12.743 1.037-18.753 3.118-3.545 1.227-6.78 2.66-9.688 4.311l5.224-43.681h76.518V129.5H237.102l-.379 3.071-11.028 89.341-.43 3.485 3.486.419 20.632 2.482 1.35.162 1.106-.792c3.391-2.429 7.837-4.498 13.438-6.133l.016-.004.015-.005c5.563-1.68 10.931-2.476 16.115-2.421h.01c7.211.055 13.497 1.748 18.956 5.002 5.503 3.28 9.809 7.754 12.953 13.479l.009.017.01.018c3.17 5.622 4.796 12.08 4.796 19.464 0 7.213-1.57 13.565-4.636 19.142l-.006.01c-3.024 5.544-7.179 9.865-12.499 13.025l-.007.004-.006.004c-5.212 3.127-11.217 4.731-18.12 4.731-8.586 0-15.801-2.433-21.823-7.208-5.934-4.811-9.179-10.763-9.911-18.006l-.318-3.148h-3.165z" fill="#fff" stroke="#fff" stroke-width="7"/></g></svg>