<svg width="450" height="450" viewBox="0 0 450 450" fill="none" xmlns="http://www.w3.org/2000/svg">
<rect x="30" y="30" width="390" height="390" rx="33" fill="#2B2A33"/>
<path d="M183.962 145V141.5H180.462H161.385H160.327L159.446 142.086L120.061 168.29L118.5 169.329V171.204V190.626V197.158L123.939 193.54L157.885 170.957V302.842V306.342H161.385H180.462H183.962V302.842V145ZM226.077 259.882H222.393L222.581 263.56C223.023 272.193 225.606 279.973 230.357 286.806C235.072 293.585 241.331 298.896 249.057 302.739C256.826 306.603 265.498 308.5 275 308.5C285.548 308.5 295.085 306.109 303.517 301.25L303.524 301.246L303.532 301.242C311.907 296.36 318.503 289.699 323.271 281.3C328.116 272.805 330.5 263.205 330.5 252.592C330.5 241.857 328.208 232.174 323.535 223.635C318.94 215.141 312.563 208.413 304.434 203.512C296.298 198.525 287.068 196.066 276.846 196.066C271.182 196.066 265.716 196.977 260.465 198.804C257.702 199.766 255.15 200.873 252.821 202.136L257.185 165.456H319.923H323.423V161.956V145V141.5H319.923H238.077H234.98L234.603 144.573L225.065 222.261L224.637 225.742L228.118 226.163L245.964 228.321L247.321 228.485L248.43 227.686C251.309 225.613 255.101 223.835 259.909 222.424L259.924 222.419L259.94 222.415C264.709 220.966 269.302 220.283 273.732 220.33L273.742 220.33C279.901 220.377 285.252 221.83 289.893 224.611C294.58 227.419 298.247 231.248 300.928 236.157L300.938 236.175L300.947 236.192C303.648 241.007 305.038 246.545 305.038 252.9C305.038 259.107 303.696 264.556 301.083 269.332L301.078 269.342C298.5 274.093 294.964 277.789 290.436 280.492L290.43 280.496L290.423 280.5C285.997 283.17 280.891 284.544 275 284.544C267.676 284.544 261.545 282.462 256.428 278.383C251.388 274.276 248.642 269.21 248.021 263.031L247.704 259.882H244.538H226.077Z" fill="white" stroke="white" stroke-width="7"/>
</svg>
